<svg width="128" height="128" fill="none" xmlns="http://www.w3.org/2000/svg"><path d="M14.89 86.928V42.182c0-3.41 2.27-7.27 5.45-9.085L61.002 7.88v24.758L37.379 46.947c-2.27 1.364-3.635 3.86-3.635 6.134V78.07c0 2.27 1.135 4.544 2.725 5.45l24.533 14.538V121L18.98 95.107c-2.27-1.59-4.09-5-4.09-8.18ZM67.816 121V98.057L92.35 83.52c1.59-.91 2.725-3.18 2.725-5.45V53.08c0-2.27-1.365-4.77-3.635-6.134l-23.623-14.31V7.88l40.662 25.213c3.179 1.815 5.449 5.68 5.449 9.084v44.747c0 3.18-1.815 6.589-4.089 8.179l-42.022 25.893V121Z" fill="#fff"/></svg>